<svg width="41" height="41" viewBox="0 0 41 41" fill="none" xmlns="http://www.w3.org/2000/svg">
<g clip-path="url(#clip0_6_220)">
<path d="M39.2951 36.8727H39.6829L38.9398 35.7486C39.3942 35.7486 39.635 35.4599 39.6385 35.1062L39.6367 35.0635C39.6367 34.5818 39.3463 34.3512 38.7501 34.3512H37.7866V36.8727H38.1488V35.7742H38.5947L39.2951 36.8727ZM38.569 35.4889H38.1488V34.6365H38.6818C38.9568 34.6365 39.2712 34.6809 39.2712 35.0413C39.2712 35.4548 38.9551 35.4889 38.569 35.4889ZM29.5388 32.583H24.4018V24.5385C24.4018 22.62 24.3677 20.1515 21.73 20.1515C19.0548 20.1515 18.6448 22.2408 18.6448 24.4001V32.583H13.5095V16.0395H18.4415V18.2997H18.5098C19.0035 17.4561 19.7167 16.7622 20.5734 16.2918C21.4302 15.8213 22.3984 15.5918 23.3751 15.6278C28.5821 15.6278 29.5405 19.053 29.5405 23.5067L29.5388 32.583ZM7.71312 13.7777C6.9225 13.7777 6.16426 13.4636 5.60521 12.9046C5.04616 12.3455 4.73208 11.5873 4.73208 10.7967C4.73208 10.006 5.04616 9.2478 5.60521 8.68875C6.16426 8.1297 6.9225 7.81562 7.71312 7.81562C8.50375 7.81562 9.26199 8.1297 9.82104 8.68875C10.3801 9.2478 10.6942 10.006 10.6942 10.7967C10.6942 11.5873 10.3801 12.3455 9.82104 12.9046C9.26199 13.4636 8.50375 13.7777 7.71312 13.7777ZM10.2808 32.583H5.13867V16.0395H10.2808V32.583ZM32.0996 3.04596H2.55737C1.88694 3.03866 1.24102 3.29779 0.761513 3.76641C0.282002 4.23503 0.00810926 4.87482 0 5.54525L0 35.2088C0.0170833 36.6062 1.16167 37.7251 2.55737 37.7097H32.0996C32.7715 37.718 33.4193 37.4592 33.9007 36.9903C34.3821 36.5214 34.6578 35.8807 34.6672 35.2088V5.54354C34.6578 4.87175 34.382 4.23118 33.9006 3.76256C33.4192 3.29394 32.7714 3.03558 32.0996 3.04425" fill="black"/>
<path d="M38.6135 33.2288C37.9889 33.2349 37.3922 33.4881 36.9537 33.933C36.5153 34.3778 36.2709 34.9782 36.274 35.6028C36.277 36.2274 36.5273 36.8254 36.97 37.266C37.4127 37.7066 38.0119 37.9539 38.6366 37.9539C39.2612 37.9539 39.8604 37.7066 40.3031 37.266C40.7458 36.8254 40.9961 36.2274 40.9991 35.6028C41.0022 34.9782 40.7578 34.3778 40.3194 33.933C39.8809 33.4881 39.2842 33.2349 38.6596 33.2288H38.6135ZM38.6682 37.6841C37.5236 37.7029 36.5259 36.7924 36.5071 35.6478C36.4981 35.0982 36.7077 34.5675 37.0899 34.1725C37.4721 33.7775 37.9956 33.5505 38.5452 33.5414C39.0947 33.5324 39.6254 33.742 40.0204 34.1242C40.4155 34.5064 40.6425 35.0299 40.6515 35.5795V35.6136C40.663 36.1512 40.4605 36.6713 40.0885 37.0595C39.7166 37.4478 39.2057 37.6725 38.6682 37.6841H38.6152H38.6682Z" fill="black"/>
</g>
<defs>
<clipPath id="clip0_6_220">
<rect width="41" height="41" fill="white"/>
</clipPath>
</defs>
</svg>
